<svg xmlns="http://www.w3.org/2000/svg" xmlns:xlink="http://www.w3.org/1999/xlink" width="500" zoomAndPan="magnify" viewBox="0 0 375 374.999991" height="500" preserveAspectRatio="xMidYMid meet" version="1.0"><defs><clipPath id="id1"><path d="M 58.628906 11.867188 L 316.628906 11.867188 L 316.628906 362.867188 L 58.628906 362.867188 Z M 58.628906 11.867188 " clip-rule="nonzero"/></clipPath></defs><path fill="rgb(100%, 100%, 100%)" d="M 147.449219 271.367188 C 137.671875 271.367188 129.75 279.273438 129.75 289.03125 C 129.75 298.789062 137.671875 306.699219 147.449219 306.699219 C 157.222656 306.699219 165.148438 298.789062 165.148438 289.03125 C 165.148438 279.273438 157.222656 271.367188 147.449219 271.367188 " fill-opacity="1" fill-rule="nonzero"/><g clip-path="url(#id1)"><path fill="rgb(100%, 100%, 100%)" d="M 151.382812 148.117188 L 256.175781 11.890625 L 215.527344 11.890625 L 90.964844 173.820312 L 90.964844 11.890625 L 58.722656 11.890625 L 58.722656 362.933594 L 90.964844 362.933594 L 90.964844 226.664062 L 131.058594 174.542969 L 275.976562 362.933594 L 316.625 362.933594 L 151.382812 148.117188 " fill-opacity="1" fill-rule="nonzero"/></g></svg>